<svg height="511pt" viewBox="-93 1 511 511.99999" width="511pt" xmlns="http://www.w3.org/2000/svg"><path d="m119.964844 349.867188v-34.132813h-59.730469c-28.277344 0-51.199219 22.921875-51.199219 51.199219v22.828125c-.007812 22.03125 14.085938 41.601562 34.984375 48.578125l67.414063 13.925781h8.53125v-34.132813h-8.53125l-46.488282-11.621093c-12.800781-3.199219-21.78125-14.703125-21.777343-27.894531 0-15.878907 12.871093-28.75 28.746093-28.75zm0 0" fill="#6fbbc6"/><path d="m154.101562 34.132812h85.332032v42.667969h-85.332032zm0 0" fill="#a8a8a8"/><path d="m154.101562 42.667969h85.332032v8.53125h-85.332032zm0 0" fill="#a0a0a0"/><path d="m128.5 76.800781h136.535156v179.199219h-136.535156zm0 0" fill="#b9b9b9"/><g fill="#cbcbcb"><path d="m188.234375 102.398438h17.066406v17.066406h-17.066406zm0 0"/><path d="m188.234375 136.535156h17.066406v17.066406h-17.066406zm0 0"/><path d="m188.234375 170.667969h17.066406v17.066406h-17.066406zm0 0"/><path d="m188.234375 204.800781h17.066406v17.066407h-17.066406zm0 0"/></g><path d="m265.035156 503.464844h-128c-14.140625 0-25.601562-11.460938-25.601562-25.597656v-204.800782h179.199218v204.800782c0 14.136718-11.460937 25.597656-25.597656 25.597656zm0 0" fill="#b3e4e8"/><path d="m137.035156 281.601562 2.839844-8.535156 116.257812-.605468 8.902344 9.140624-17.070312 34.132813h-93.863282zm0 0" fill="#64a8b2"/><path d="m111.433594 401.066406h179.199218v76.800782c0 14.136718-11.460937 25.597656-25.597656 25.597656h-128c-14.140625 0-25.601562-11.460938-25.601562-25.597656zm0 0" fill="#744630"/><path d="m196.765625 366.933594c-4.710937 0-8.53125-3.820313-8.53125-8.535156v-8.53125c0-4.714844 3.820313-8.535157 8.53125-8.535157 4.714844 0 8.535156 3.820313 8.535156 8.535157v8.53125c0 4.714843-3.820312 8.535156-8.535156 8.535156zm0 0" fill="#744630"/><path d="m230.898438 375.464844c-4.710938 0-8.53125-3.820313-8.53125-8.53125v-8.535156c0-4.710938 3.820312-8.53125 8.53125-8.53125 4.714843 0 8.535156 3.820312 8.535156 8.53125v8.535156c0 4.710937-3.820313 8.53125-8.535156 8.53125zm0 0" fill="#744630"/><path d="m162.632812 375.464844c-4.710937 0-8.53125-3.820313-8.53125-8.53125v-8.535156c0-4.710938 3.820313-8.53125 8.53125-8.53125 4.714844 0 8.535157 3.820312 8.535157 8.53125v8.535156c0 4.710937-3.820313 8.53125-8.535157 8.53125zm0 0" fill="#744630"/><path d="m290.632812 85.332031h-187.734374c-4.710938 0-8.53125-3.820312-8.53125-8.53125 0-4.714843 3.820312-8.535156 8.53125-8.535156h187.734374c4.714844 0 8.535157 3.820313 8.535157 8.535156 0 4.710938-3.820313 8.53125-8.535157 8.53125zm0 0" fill="#b9b9b9"/><path d="m85.832031 247.464844h221.867188c4.714843 0 8.535156 3.824218 8.535156 8.535156v17.066406c0 4.714844-3.820313 8.535156-8.535156 8.535156h-221.867188c-4.710937 0-8.53125-3.820312-8.53125-8.535156v-17.066406c0-4.710938 3.820313-8.535156 8.53125-8.535156zm0 0" fill="#746250"/><path d="m137.035156 8.535156h119.464844v34.132813h-119.464844zm0 0" fill="#b9b9b9"/><path d="m188.234375 102.398438h17.066406v17.066406h-17.066406zm0 0"/><path d="m188.234375 136.535156h17.066406v17.066406h-17.066406zm0 0"/><path d="m188.234375 170.667969h17.066406v17.066406h-17.066406zm0 0"/><path d="m188.234375 204.800781h17.066406v17.066407h-17.066406zm0 0"/><path d="m196.765625 341.332031c-4.710937 0-8.53125 3.820313-8.53125 8.535157v8.53125c0 4.714843 3.820313 8.535156 8.53125 8.535156 4.714844 0 8.535156-3.820313 8.535156-8.535156v-8.53125c0-4.714844-3.820312-8.535157-8.535156-8.535157zm0 0"/><path d="m230.898438 349.867188c-4.710938 0-8.53125 3.820312-8.53125 8.53125v8.535156c0 4.710937 3.820312 8.53125 8.53125 8.53125 4.714843 0 8.535156-3.820313 8.535156-8.53125v-8.535156c0-4.710938-3.820313-8.53125-8.535156-8.53125zm0 0"/><path d="m162.632812 349.867188c-4.710937 0-8.53125 3.820312-8.53125 8.53125v8.535156c0 4.710937 3.820313 8.53125 8.53125 8.53125 4.714844 0 8.535157-3.820313 8.535157-8.53125v-8.535156c0-4.710938-3.820313-8.53125-8.535157-8.53125zm0 0"/><path d="m60.234375 307.199219c-32.972656.042969-59.691406 26.761719-59.734375 59.734375v22.835937c-.023438 25.714844 16.4375 48.546875 40.839844 56.652344.320312.113281.644531.203125.972656.273437l60.585938 12.527344v18.644532c0 18.851562 15.285156 34.132812 34.136718 34.132812h128c18.851563 0 34.132813-15.28125 34.132813-34.132812v-187.734376h8.53125c9.425781 0 17.066406-7.640624 17.066406-17.066406v-17.066406c0-9.425781-7.640625-17.066406-17.066406-17.066406h-34.132813v-153.601563h17.066406c4.714844 0 8.535157-3.820312 8.535157-8.53125 0-4.714843-3.820313-8.535156-8.535157-8.535156h-42.667968v-17.066406h8.535156c4.710938 0 8.535156-3.820313 8.535156-8.53125v-34.132813c0-4.714844-3.824218-8.535156-8.535156-8.535156h-119.464844c-4.714844 0-8.535156 3.820312-8.535156 8.535156v34.132813c0 4.710937 3.820312 8.53125 8.535156 8.53125h8.53125v17.066406h-42.667968c-4.710938 0-8.53125 3.820313-8.53125 8.535156 0 4.710938 3.820312 8.53125 8.53125 8.53125h17.066406v153.601563h-34.132813c-9.425781 0-17.066406 7.640625-17.066406 17.066406v17.066406c0 9.425782 7.640625 17.066406 17.066406 17.066406h17.066407v17.066407zm42.664063 100.011719-35.890626-8.976563c-10.832031-2.695313-17.433593-13.660156-14.738281-24.496094 2.242188-9.023437 10.347657-15.351562 19.644531-15.339843h30.984376zm0-65.878907h-30.984376c-20.589843.015625-37.269531 16.71875-37.257812 37.308594.011719 17.089844 11.644531 31.984375 28.222656 36.140625l40.019532 10.007812v17l-56.617188-11.710937c-17.195312-5.925781-28.730469-22.121094-28.714844-40.308594v-22.835937c.027344-23.550782 19.113282-42.636719 42.667969-42.667969h42.664063zm179.203124 136.535157c0 9.425781-7.644531 17.066406-17.066406 17.066406h-128c-9.425781 0-17.070312-7.640625-17.070312-17.066406v-68.265626h162.136718zm0-85.332032h-162.136718v-102.402344h11.792968l14.703126 29.414063c1.449218 2.894531 4.40625 4.722656 7.640624 4.71875h93.863282c3.25.019531 6.230468-1.8125 7.683594-4.71875l14.660156-29.414063h11.792968zm-131.261718-102.402344h100.386718l-8.535156 17.066407h-83.316406zm-5.273438-273.066406h102.398438v17.066406h-102.398438zm85.332032 34.132813v17.066406h-68.265626v-17.066406zm-93.863282 34.132812h119.464844v153.601563h-119.464844zm-51.203125 187.734375v-17.066406h221.867188v17.066406zm0 0"/></svg>