<svg height="511pt" viewBox="-21 1 511 511.99999" width="511pt" xmlns="http://www.w3.org/2000/svg"><path d="m341.832031 68.265625h-25.597656c-4.714844 0-8.535156-3.820313-8.535156-8.53125v-25.601563c0-4.710937 3.820312-8.53125 8.535156-8.53125h8.53125c14.140625 0 25.601563 11.460938 25.601563 25.597657v8.535156c0 4.710937-3.820313 8.53125-8.535157 8.53125zm-17.066406-17.066406h8.535156c0-4.710938-3.820312-8.53125-8.535156-8.53125zm0 0" fill="#cdcdcd"/><path d="m196.765625 68.265625h-25.597656c-4.714844 0-8.535157-3.820313-8.535157-8.53125v-25.601563c0-4.710937 3.820313-8.53125 8.535157-8.53125h8.53125c14.140625 0 25.601562 11.460938 25.601562 25.597657v8.535156c0 4.710937-3.820312 8.53125-8.535156 8.53125zm-17.066406-17.066406h8.535156c0-4.710938-3.820313-8.53125-8.535156-8.53125zm0 0" fill="#cdcdcd"/><path d="m265.035156 8.535156h17.066406c18.851563 0 34.132813 15.28125 34.132813 34.132813v17.066406h-85.335937v-17.066406c0-18.851563 15.285156-34.132813 34.136718-34.132813zm0 0" fill="#d9d9d9"/><path d="m119.964844 8.535156h17.070312c18.847656 0 34.132813 15.28125 34.132813 34.132813v17.066406h-85.335938v-17.066406c0-18.851563 15.285157-34.132813 34.132813-34.132813zm0 0" fill="#d9d9d9"/><path d="m34.632812 460.800781h358.402344v42.664063h-358.402344zm0 0" fill="#a8a8a8"/><path d="m34.632812 469.332031h358.402344v17.066407h-358.402344zm0 0" fill="#787d82"/><path d="m9.035156 435.199219h409.597656v34.132812h-409.597656zm0 0" fill="#746250"/><path d="m34.632812 179.199219h358.402344v256h-358.402344zm0 0" fill="#8d7761"/><path d="m196.765625 170.667969h34.132813v51.199219h-34.132813zm0 0" fill="#a8a8a8"/><path d="m196.765625 170.667969h34.132813v25.597656h-34.132813zm0 0" fill="#9c9c9c"/><path d="m273.566406 221.867188h68.265625v34.132812h-68.265625zm0 0" fill="#1f6c8c"/><path d="m427.167969 273.066406h-93.867188v-68.265625h93.867188c18.851562 0 34.132812 15.28125 34.132812 34.132813 0 18.851562-15.28125 34.132812-34.132812 34.132812zm0 0" fill="#bd9070"/><path d="m273.566406 298.667969v34.132812h42.667969v34.132813h-42.667969v34.132812h42.667969c18.851563 0 34.132813-15.28125 34.132813-34.132812v-34.132813c0-18.851562-15.28125-34.132812-34.132813-34.132812zm0 0" fill="#b9b9b9"/><path d="m34.632812 59.734375h358.402344v119.464844h-358.402344zm0 0" fill="#b9b9b9"/><path d="m137.035156 93.867188h153.597656v51.199218h-153.597656zm0 0" fill="#b3e4e8"/><path d="m358.898438 119.464844c0 9.425781-7.640626 17.070312-17.066407 17.070312s-17.066406-7.644531-17.066406-17.070312c0-9.425782 7.640625-17.066406 17.066406-17.066406s17.066407 7.640624 17.066407 17.066406zm0 0" fill="#3b869e"/><path d="m102.898438 119.464844c0 9.425781-7.640626 17.070312-17.066407 17.070312s-17.066406-7.644531-17.066406-17.070312c0-9.425782 7.640625-17.066406 17.066406-17.066406s17.066407 7.640624 17.066407 17.066406zm0 0" fill="#787d82"/><path d="m145.566406 213.332031h136.535156v51.203125h-136.535156zm0 0" fill="#3b869e"/><path d="m145.566406 298.667969v93.867187c0 23.5625 19.101563 42.664063 42.667969 42.664063h51.199219c23.5625 0 42.667968-19.101563 42.667968-42.664063v-93.867187zm0 0" fill="#cdcdcd"/><path d="m9.035156 477.867188h17.066406v25.597656c0 4.714844 3.820313 8.535156 8.53125 8.535156h358.402344c4.710938 0 8.53125-3.820312 8.53125-8.535156v-25.597656h17.066406c4.714844 0 8.535157-3.820313 8.535157-8.535157v-34.132812c0-4.710938-3.820313-8.53125-8.535157-8.53125h-17.066406v-145.066407h25.601563c23.5625 0 42.664062-19.105468 42.664062-42.667968 0-23.566406-19.101562-42.667969-42.664062-42.667969h-25.601563v-136.53125c0-4.714844-3.820312-8.535156-8.53125-8.535156h-42.667968c0-14.136719-11.460938-25.597657-25.601563-25.597657h-3.617187c-6.777344-15.53125-22.105469-25.5781245-39.046876-25.601562h-17.066406c-23.554687.0273438-42.640625 19.113281-42.667968 42.667969v8.53125h-17.066407c0-14.136719-11.460937-25.597657-25.601562-25.597657h-3.617188c-6.777343-15.53125-22.105469-25.5781245-39.046875-25.601562h-17.070312c-23.550782.0273438-42.636719 19.113281-42.664063 42.667969v8.53125h-42.667969c-4.710937 0-8.53125 3.820312-8.53125 8.535156v366.933594h-17.066406c-4.714844 0-8.535156 3.820312-8.535156 8.53125v34.132812c0 4.714844 3.820312 8.535157 8.535156 8.535157zm375.464844 17.066406h-341.332031v-17.066406h341.332031zm42.667969-281.601563c14.136719 0 25.597656 11.464844 25.597656 25.601563 0 14.136718-11.460937 25.601562-25.597656 25.601562h-85.335938v-51.203125zm-136.535157 0c0-4.710937-3.820312-8.53125-8.53125-8.53125h-42.667968v-17.066406h145.066406v8.53125h-51.199219c-4.714843 0-8.535156 3.820313-8.535156 8.535156v8.53125zm34.132813 17.066407v17.066406h-34.132813v-17.066406zm-51.199219-8.53125v34.132812h-119.464844v-34.132812zm-68.265625-17.066407v-17.066406h17.066407v17.066406zm119.464844-162.132812c4.714844 0 8.535156 3.820312 8.535156 8.53125h-8.535156zm-85.332031 0c0-14.140625 11.460937-25.601563 25.601562-25.601563h17.066406c14.136719 0 25.597657 11.460938 25.597657 25.601563v8.53125h-68.265625zm-59.734375 0c4.714843 0 8.535156 3.820312 8.535156 8.53125h-8.535156zm-85.332031 0c0-14.140625 11.460937-25.601563 25.597656-25.601563h17.070312c14.136719 0 25.597656 11.460938 25.597656 25.601563v8.53125h-68.265624zm-51.199219 25.597656h341.332031v102.402344h-341.332031zm0 119.46875h145.066406v17.066406h-42.667969c-4.710937 0-8.53125 3.820313-8.53125 8.53125v51.203125c0 4.710938 3.820313 8.53125 8.53125 8.53125h136.535156c4.710938 0 8.53125-3.820312 8.53125-8.53125h34.132813v8.53125c0 4.714844 3.820313 8.535156 8.535156 8.535156h51.199219v145.066407h-107.007812c4.464843-4.972657 7.914062-10.773438 10.15625-17.066407h28.585937c23.550781-.03125 42.636719-19.117187 42.664063-42.667968v-34.132813c-.027344-23.554687-19.113282-42.640625-42.664063-42.667969h-170.667969c-4.710937 0-8.53125 3.820313-8.53125 8.535157v93.867187c0 12.609375 4.683594 24.773438 13.140625 34.132813h-107.007812zm273.066406 187.730469c4.710937 0 8.53125-3.820313 8.53125-8.53125v-34.132813c0-4.714843-3.820313-8.535156-8.53125-8.535156h-25.601563v-17.066406h25.601563c14.136719 0 25.597656 11.460937 25.597656 25.601562v34.132813c0 14.136718-11.460937 25.601562-25.597656 25.601562h-25.601563v-17.070312zm-25.601563-17.066406v-17.066407h17.066407v17.066407zm-17.066406-51.199219v85.335937c0 18.851563-15.28125 34.132813-34.132812 34.132813h-51.199219c-18.851563 0-34.132813-15.28125-34.132813-34.132813v-85.335937zm-256 136.535156h392.535156v17.066406h-392.535156zm0 0"/><path d="m290.632812 85.332031h-153.597656c-4.714844 0-8.535156 3.820313-8.535156 8.535157v51.199218c0 4.714844 3.820312 8.535156 8.535156 8.535156h153.597656c4.714844 0 8.535157-3.820312 8.535157-8.535156v-51.199218c0-4.714844-3.820313-8.535157-8.535157-8.535157zm-8.53125 51.203125h-136.535156v-34.136718h136.535156zm0 0"/><path d="m341.832031 93.867188c-14.136719 0-25.597656 11.460937-25.597656 25.597656 0 14.140625 11.460937 25.601562 25.597656 25.601562 14.140625 0 25.601563-11.460937 25.601563-25.601562 0-14.136719-11.460938-25.597656-25.601563-25.597656zm0 34.132812c-4.710937 0-8.53125-3.820312-8.53125-8.535156 0-4.710938 3.820313-8.53125 8.53125-8.53125 4.714844 0 8.535157 3.820312 8.535157 8.53125 0 4.714844-3.820313 8.535156-8.535157 8.535156zm0 0"/><path d="m85.832031 93.867188c-14.136719 0-25.597656 11.460937-25.597656 25.597656 0 14.140625 11.460937 25.601562 25.597656 25.601562 14.140625 0 25.601563-11.460937 25.601563-25.601562 0-14.136719-11.460938-25.597656-25.601563-25.597656zm0 34.132812c-4.710937 0-8.53125-3.820312-8.53125-8.535156 0-4.710938 3.820313-8.53125 8.53125-8.53125 4.714844 0 8.535157 3.820312 8.535157 8.53125 0 4.714844-3.820313 8.535156-8.535157 8.535156zm0 0"/></svg>