<svg height="512pt" viewBox="-35 0 512 512.00005" width="512pt" xmlns="http://www.w3.org/2000/svg"><path d="m11.328125 188.464844c-3.519531-3.074219-3.878906-8.417969-.804687-11.9375 1.613281-1.84375 3.945312-2.898438 6.394531-2.894532h62.082031l-8.460938 59.214844h-8.457031zm0 0" fill="#e4e4e2"/><path d="m95.917969 110.191406h203.019531c18.6875 0 33.835938 15.148438 33.835938 33.835938v325.675781c0 18.6875-15.148438 33.835937-33.835938 33.835937h-203.019531c-18.6875 0-33.835938-15.148437-33.835938-33.835937v-325.675781c0-18.6875 15.148438-33.835938 33.835938-33.835938zm0 0" fill="#ebebeb"/><path d="m383.527344 165.175781h-59.210938v42.296875h59.210938v135.34375h-59.210938v42.296875h67.671875c23.359375 0 42.296875-18.9375 42.296875-42.296875v-135.34375c0-23.359375-18.9375-42.296875-42.296875-42.296875zm0 0" fill="#60a0aa"/><path d="m62.082031 258.226562h270.691407v211.476563c0 18.6875-15.148438 33.835937-33.835938 33.835937h-203.019531c-18.6875 0-33.835938-15.148437-33.835938-33.835937zm0 0" fill="#a45e14"/><path d="m180.507812 67.894531h33.839844v190.332031h-33.839844zm0 0" fill="#8aced8"/><path d="m95.917969 110.191406h203.019531c18.6875 0 33.835938 15.148438 33.835938 33.835938v16.917968h-270.691407v-16.917968c0-18.6875 15.148438-33.835938 33.835938-33.835938zm0 0" fill="#b9b9b9"/><path d="m62.082031 418.949219h270.691407v50.753906c0 18.6875-15.148438 33.835937-33.835938 33.835937h-203.019531c-18.6875 0-33.835938-15.148437-33.835938-33.835937zm0 0" fill="#834b10"/><path d="m231.265625 42.519531c0 18.6875-15.152344 33.835938-33.839844 33.835938s-33.835937-15.148438-33.835937-33.835938 15.148437-33.839843 33.835937-33.839843 33.839844 15.152343 33.839844 33.839843zm0 0" fill="#6fbbc6"/><g fill="#70400e"><path d="m87.457031 444.328125h16.921875v16.917969h-16.921875zm0 0"/><path d="m121.296875 461.246094h16.917969v16.917968h-16.917969zm0 0"/><path d="m155.132812 444.328125h16.917969v16.917969h-16.917969zm0 0"/><path d="m222.804688 444.328125h16.917968v16.917969h-16.917968zm0 0"/><path d="m256.640625 461.246094h16.917969v16.917968h-16.917969zm0 0"/><path d="m290.476562 444.328125h16.917969v16.917969h-16.917969zm0 0"/><path d="m188.96875 461.246094h16.917969v16.917968h-16.917969zm0 0"/></g><path d="m62.082031 334.359375h42.296875v16.917969h-42.296875zm0 0" fill="#834b10"/><path d="m62.082031 368.195312h42.296875v16.917969h-42.296875zm0 0" fill="#834b10"/><path d="m180.507812 190.554688h33.839844v76.128906h-33.839844zm0 0" fill="#dbdbdb"/><path d="m62.082031 156.714844h270.691407v50.757812h-270.691407zm0 0" fill="#69b0bb"/><path d="m62.082031 258.226562h270.691407v50.753907h-270.691407zm0 0" fill="#b9b9b9"/><path d="m95.917969 283.601562c-4.671875 0-8.460938 3.789063-8.460938 8.460938v16.917969h16.921875v-16.917969c0-4.671875-3.789062-8.460938-8.460937-8.460938zm0 0" fill="#a8a8a8"/><path d="m129.753906 283.601562c-4.671875 0-8.457031 3.789063-8.457031 8.460938v16.917969h16.917969v-16.917969c0-4.671875-3.789063-8.460938-8.460938-8.460938zm0 0" fill="#a8a8a8"/><path d="m163.589844 283.601562c-4.671875 0-8.457032 3.789063-8.457032 8.460938v16.917969h16.917969v-16.917969c0-4.671875-3.789062-8.460938-8.460937-8.460938zm0 0" fill="#a8a8a8"/><path d="m197.425781 283.601562c-4.671875 0-8.457031 3.789063-8.457031 8.460938v16.917969h16.917969v-16.917969c0-4.671875-3.789063-8.460938-8.460938-8.460938zm0 0" fill="#a8a8a8"/><path d="m231.265625 283.601562c-4.671875 0-8.460937 3.789063-8.460937 8.460938v16.917969h16.917968v-16.917969c0-4.671875-3.785156-8.460938-8.457031-8.460938zm0 0" fill="#a8a8a8"/><path d="m265.101562 283.601562c-4.671874 0-8.460937 3.789063-8.460937 8.460938v16.917969h16.917969v-16.917969c0-4.671875-3.785156-8.460938-8.457032-8.460938zm0 0" fill="#a8a8a8"/><path d="m298.9375 283.601562c-4.671875 0-8.460938 3.789063-8.460938 8.460938v16.917969h16.917969v-16.917969c0-4.671875-3.785156-8.460938-8.457031-8.460938zm0 0" fill="#a8a8a8"/><path d="m87.457031 444.328125h16.921875v16.917969h-16.921875zm0 0"/><path d="m121.296875 461.246094h16.917969v16.917968h-16.917969zm0 0"/><path d="m155.132812 444.328125h16.917969v16.917969h-16.917969zm0 0"/><path d="m222.804688 444.328125h16.917968v16.917969h-16.917968zm0 0"/><path d="m256.640625 461.246094h16.917969v16.917968h-16.917969zm0 0"/><path d="m290.476562 444.328125h16.917969v16.917969h-16.917969zm0 0"/><path d="m188.96875 461.246094h16.917969v16.917968h-16.917969zm0 0"/><path d="m53.621094 236.6875v233.015625c.027344 23.347656 18.949218 42.269531 42.296875 42.296875h203.019531c23.347656-.027344 42.265625-18.949219 42.296875-42.296875v-76.132813h50.753906c28.019531-.027343 50.726563-22.734374 50.753907-50.753906v-135.34375c-.027344-28.019531-22.734376-50.726562-50.753907-50.757812h-50.753906v-12.6875c-.03125-23.347656-18.949219-42.265625-42.296875-42.296875h-76.132812v-25.597657c18.6875-14.011718 22.476562-40.523437 8.460937-59.210937s-40.527344-22.476563-59.214844-8.460937c-18.6875 14.015624-22.476562 40.527343-8.460937 59.214843 2.40625 3.207031 5.253906 6.054688 8.460937 8.457031v.1875 25.378907h-76.132812c-23.347657.027343-42.269531 18.945312-42.296875 42.292969v21.183593h-36.703125c-9.34375 0-16.917969 7.574219-16.917969 16.917969 0 4.882812 2.109375 9.527344 5.785156 12.738281zm287.613281-20.757812h33.835937v118.429687h-33.835937zm0 135.347656h42.292969c4.671875 0 8.460937-3.789063 8.460937-8.460938v-135.34375c0-4.671875-3.789062-8.460937-8.460937-8.460937h-42.292969v-25.378907h50.753906c18.6875 0 33.835938 15.152344 33.835938 33.839844v135.34375c0 18.6875-15.148438 33.835938-33.835938 33.835938h-50.753906zm-16.917969-101.511719h-101.511718v-33.835937h101.511718zm-25.378906-131.117187c14.015625 0 25.378906 11.363281 25.378906 25.378906v8.460937h-101.511718v-33.839843zm-126.886719-76.128907c0-14.015625 11.359375-25.378906 25.375-25.378906s25.378907 11.363281 25.378907 25.378906-11.363282 25.375-25.378907 25.375-25.375-11.359375-25.375-25.375zm16.917969 59.210938v-17.761719c5.582031 1.136719 11.335938 1.136719 16.917969 0v17.761719zm16.917969 16.917969v33.839843h-16.917969v-33.839843zm-135.347657 25.378906c0-14.015625 11.363282-25.378906 25.378907-25.378906h76.132812v33.839843h-101.511719zm0 29.605468h253.777344v25.378907h-253.777344zm135.347657 42.296876v33.835937h-16.917969v-33.835937zm-135.347657 0h101.511719v33.835937h-101.511719zm0 50.753906h253.777344v33.839844h-16.921875v-8.460938c0-4.671875-3.785156-8.460938-8.457031-8.460938s-8.460938 3.789063-8.460938 8.460938v8.460938h-16.917968v-8.460938c0-4.671875-3.785156-8.460938-8.457032-8.460938-4.671874 0-8.460937 3.789063-8.460937 8.460938v8.460938h-16.917969v-8.460938c0-4.671875-3.785156-8.460938-8.457031-8.460938s-8.460937 3.789063-8.460937 8.460938v8.460938h-16.917969v-8.460938c0-4.671875-3.789063-8.460938-8.460938-8.460938s-8.457031 3.789063-8.457031 8.460938v8.460938h-16.917969v-8.460938c0-4.671875-3.789062-8.460938-8.460937-8.460938s-8.457032 3.789063-8.457032 8.460938v8.460938h-16.917968v-8.460938c0-4.671875-3.789063-8.460938-8.460938-8.460938s-8.457031 3.789063-8.457031 8.460938v8.460938h-16.917969v-8.460938c0-4.671875-3.789062-8.460938-8.460937-8.460938s-8.460938 3.789063-8.460938 8.460938v8.460938h-16.917969zm0 118.429687h33.839844v-16.917969h-33.839844v-16.917968h33.839844v-16.917969h-33.839844v-16.917969h253.777344v93.050782h-253.777344zm0 42.296875h253.777344v42.292969c0 14.015625-11.363281 25.378906-25.378906 25.378906h-203.019531c-14.015625 0-25.378907-11.363281-25.378907-25.378906zm-53.621093-245.316406h36.703125v32.144531l-36.796875-32.144531zm0 0"/></svg>